<svg xmlns="http://www.w3.org/2000/svg" xmlns:svgjs="http://svgjs.dev/svgjs" xmlns:xlink="http://www.w3.org/1999/xlink" id="qqquad" version="1.1" viewBox="0 0 800 800"><g fill="none" stroke="hsl(220, 64%, 12%)" shape-rendering="crispEdges" strokeLinejoin="round" strokeWidth="1"><polygon points="800 0 600 200 800 200"/><polygon points="600 0 400 0 600 200"/><polygon points="600 300 600 200 500 200"/><polygon points="400 300 500 200 500 300"/><polygon points="400 300 500 300 500 400"/><polygon points="600 400 500 400 500 300"/><polygon points="800 200 800 400 600 200"/><polygon points="400 0 200 0 200 200"/><polygon points="0 0 200 0 200 200"/><polygon points="0 200 200 400 0 400"/><polygon points="300 200 400 200 300 300"/><polygon points="200 300 200 200 300 200"/><polygon points="300 400 200 400 300 300"/><polygon points="300 300 400 400 300 400"/><polygon points="300 500 300 400 400 500"/><polygon points="200 500 300 500 300 400"/><polygon points="300 600 200 600 200 500"/><polygon points="400 500 400 600 300 500"/><polygon points="200 500 200 400 100 500"/><polygon points="100 400 100 500 0 400"/><polygon points="0 500 100 500 0 600"/><polygon points="200 600 200 500 100 600"/><polygon points="0 800 200 800 200 600"/><polygon points="400 800 200 800 200 600"/><polygon points="800 400 600 600 800 600"/><polygon points="600 500 600 400 500 500"/><polygon points="500 500 400 500 400 400"/><polygon points="500 600 400 500 400 600"/><polygon points="500 600 600 600 500 500"/><polygon points="600 700 500 700 600 600"/><polygon points="500 600 500 700 400 600"/><polygon points="500 800 500 700 400 800"/><polygon points="600 700 600 800 500 800"/><polygon points="800 600 800 800 600 800"/></g></svg>