<svg xmlns="http://www.w3.org/2000/svg" width="921" height="118"><rect width="12" height="12" x="10" y="10" fill="#9be9a8"/><rect width="12" height="12" x="10" y="24" fill="#9be9a8"/><rect width="12" height="12" x="10" y="38" fill="#9be9a8"/><rect width="12" height="12" x="10" y="52" fill="#9be9a8"/><rect width="12" height="12" x="10" y="66" fill="#9be9a8"/><rect width="12" height="12" x="10" y="80" fill="#9be9a8"/><rect width="12" height="12" x="10" y="94" fill="#9be9a8"/><rect width="12" height="12" x="27" y="10" fill="#30a14e"/><rect width="12" height="12" x="27" y="24" fill="#9be9a8"/><rect width="12" height="12" x="27" y="38" fill="#9be9a8"/><rect width="12" height="12" x="27" y="52" fill="#9be9a8"/><rect width="12" height="12" x="27" y="66" fill="#9be9a8"/><rect width="12" height="12" x="27" y="80" fill="#9be9a8"/><rect width="12" height="12" x="27" y="94" fill="#9be9a8"/><rect width="12" height="12" x="44" y="10" fill="#ebedf0"/><rect width="12" height="12" x="44" y="24" fill="#9be9a8"/><rect width="12" height="12" x="44" y="38" fill="#9be9a8"/><rect width="12" height="12" x="44" y="52" fill="#9be9a8"/><rect width="12" height="12" x="44" y="66" fill="#9be9a8"/><rect width="12" height="12" x="44" y="80" fill="#9be9a8"/><rect width="12" height="12" x="44" y="94" fill="#9be9a8"/><rect width="12" height="12" x="61" y="10" fill="#9be9a8"/><rect width="12" height="12" x="61" y="24" fill="#9be9a8"/><rect width="12" height="12" x="61" y="38" fill="#9be9a8"/><rect width="12" height="12" x="61" y="52" fill="#9be9a8"/><rect width="12" height="12" x="61" y="66" fill="#9be9a8"/><rect width="12" height="12" x="61" y="80" fill="#9be9a8"/><rect width="12" height="12" x="61" y="94" fill="#9be9a8"/><rect width="12" height="12" x="78" y="10" fill="#9be9a8"/><rect width="12" height="12" x="78" y="24" fill="#9be9a8"/><rect width="12" height="12" x="78" y="38" fill="#9be9a8"/><rect width="12" height="12" x="78" y="52" fill="#9be9a8"/><rect width="12" height="12" x="78" y="66" fill="#30a14e"/><rect width="12" height="12" x="78" y="80" fill="#40c463"/><rect width="12" height="12" x="78" y="94" fill="#ebedf0"/><rect width="12" height="12" x="95" y="10" fill="#ebedf0"/><rect width="12" height="12" x="95" y="24" fill="#ebedf0"/><rect width="12" height="12" x="95" y="38" fill="#ebedf0"/><rect width="12" height="12" x="95" y="52" fill="#ebedf0"/><rect width="12" height="12" x="95" y="66" fill="#ebedf0"/><rect width="12" height="12" x="95" y="80" fill="#ebedf0"/><rect width="12" height="12" x="95" y="94" fill="#ebedf0"/><rect width="12" height="12" x="112" y="10" fill="#ebedf0"/><rect width="12" height="12" x="112" y="24" fill="#ebedf0"/><rect width="12" height="12" x="112" y="38" fill="#ebedf0"/><rect width="12" height="12" x="112" y="52" fill="#ebedf0"/><rect width="12" height="12" x="112" y="66" fill="#ebedf0"/><rect width="12" height="12" x="112" y="80" fill="#ebedf0"/><rect width="12" height="12" x="112" y="94" fill="#ebedf0"/><rect width="12" height="12" x="129" y="10" fill="#ebedf0"/><rect width="12" height="12" x="129" y="24" fill="#ebedf0"/><rect width="12" height="12" x="129" y="38" fill="#ebedf0"/><rect width="12" height="12" x="129" y="52" fill="#ebedf0"/><rect width="12" height="12" x="129" y="66" fill="#ebedf0"/><rect width="12" height="12" x="129" y="80" fill="#ebedf0"/><rect width="12" height="12" x="129" y="94" fill="#40c463"/><rect width="12" height="12" x="146" y="10" fill="#40c463"/><rect width="12" height="12" x="146" y="24" fill="#9be9a8"/><rect width="12" height="12" x="146" y="38" fill="#ebedf0"/><rect width="12" height="12" x="146" y="52" fill="#9be9a8"/><rect width="12" height="12" x="146" y="66" fill="#ebedf0"/><rect width="12" height="12" x="146" y="80" fill="#ebedf0"/><rect width="12" height="12" x="146" y="94" fill="#ebedf0"/><rect width="12" height="12" x="163" y="10" fill="#ebedf0"/><rect width="12" height="12" x="163" y="24" fill="#ebedf0"/><rect width="12" height="12" x="163" y="38" fill="#9be9a8"/><rect width="12" height="12" x="163" y="52" fill="#ebedf0"/><rect width="12" height="12" x="163" y="66" fill="#ebedf0"/><rect width="12" height="12" x="163" y="80" fill="#ebedf0"/><rect width="12" height="12" x="163" y="94" fill="#30a14e"/><rect width="12" height="12" x="180" y="10" fill="#9be9a8"/><rect width="12" height="12" x="180" y="24" fill="#9be9a8"/><rect width="12" height="12" x="180" y="38" fill="#ebedf0"/><rect width="12" height="12" x="180" y="52" fill="#9be9a8"/><rect width="12" height="12" x="180" y="66" fill="#9be9a8"/><rect width="12" height="12" x="180" y="80" fill="#9be9a8"/><rect width="12" height="12" x="180" y="94" fill="#ebedf0"/><rect width="12" height="12" x="197" y="10" fill="#9be9a8"/><rect width="12" height="12" x="197" y="24" fill="#9be9a8"/><rect width="12" height="12" x="197" y="38" fill="#ebedf0"/><rect width="12" height="12" x="197" y="52" fill="#ebedf0"/><rect width="12" height="12" x="197" y="66" fill="#ebedf0"/><rect width="12" height="12" x="197" y="80" fill="#ebedf0"/><rect width="12" height="12" x="197" y="94" fill="#ebedf0"/><rect width="12" height="12" x="214" y="10" fill="#40c463"/><rect width="12" height="12" x="214" y="24" fill="#9be9a8"/><rect width="12" height="12" x="214" y="38" fill="#9be9a8"/><rect width="12" height="12" x="214" y="52" fill="#9be9a8"/><rect width="12" height="12" x="214" y="66" fill="#30a14e"/><rect width="12" height="12" x="214" y="80" fill="#40c463"/><rect width="12" height="12" x="214" y="94" fill="#ebedf0"/><rect width="12" height="12" x="231" y="10" fill="#ebedf0"/><rect width="12" height="12" x="231" y="24" fill="#9be9a8"/><rect width="12" height="12" x="231" y="38" fill="#9be9a8"/><rect width="12" height="12" x="231" y="52" fill="#9be9a8"/><rect width="12" height="12" x="231" y="66" fill="#ebedf0"/><rect width="12" height="12" x="231" y="80" fill="#40c463"/><rect width="12" height="12" x="231" y="94" fill="#9be9a8"/><rect width="12" height="12" x="248" y="10" fill="#9be9a8"/><rect width="12" height="12" x="248" y="24" fill="#ebedf0"/><rect width="12" height="12" x="248" y="38" fill="#ebedf0"/><rect width="12" height="12" x="248" y="52" fill="#9be9a8"/><rect width="12" height="12" x="248" y="66" fill="#ebedf0"/><rect width="12" height="12" x="248" y="80" fill="#ebedf0"/><rect width="12" height="12" x="248" y="94" fill="#ebedf0"/><rect width="12" height="12" x="265" y="10" fill="#9be9a8"/><rect width="12" height="12" x="265" y="24" fill="#ebedf0"/><rect width="12" height="12" x="265" y="38" fill="#ebedf0"/><rect width="12" height="12" x="265" y="52" fill="#ebedf0"/><rect width="12" height="12" x="265" y="66" fill="#ebedf0"/><rect width="12" height="12" x="265" y="80" fill="#ebedf0"/><rect width="12" height="12" x="265" y="94" fill="#40c463"/><rect width="12" height="12" x="282" y="10" fill="#40c463"/><rect width="12" height="12" x="282" y="24" fill="#30a14e"/><rect width="12" height="12" x="282" y="38" fill="#9be9a8"/><rect width="12" height="12" x="282" y="52" fill="#216e39"/><rect width="12" height="12" x="282" y="66" fill="#216e39"/><rect width="12" height="12" x="282" y="80" fill="#30a14e"/><rect width="12" height="12" x="282" y="94" fill="#ebedf0"/><rect width="12" height="12" x="299" y="10" fill="#9be9a8"/><rect width="12" height="12" x="299" y="24" fill="#9be9a8"/><rect width="12" height="12" x="299" y="38" fill="#ebedf0"/><rect width="12" height="12" x="299" y="52" fill="#9be9a8"/><rect width="12" height="12" x="299" y="66" fill="#ebedf0"/><rect width="12" height="12" x="299" y="80" fill="#ebedf0"/><rect width="12" height="12" x="299" y="94" fill="#ebedf0"/><rect width="12" height="12" x="316" y="10" fill="#ebedf0"/><rect width="12" height="12" x="316" y="24" fill="#30a14e"/><rect width="12" height="12" x="316" y="38" fill="#9be9a8"/><rect width="12" height="12" x="316" y="52" fill="#ebedf0"/><rect width="12" height="12" x="316" y="66" fill="#9be9a8"/><rect width="12" height="12" x="316" y="80" fill="#ebedf0"/><rect width="12" height="12" x="316" y="94" fill="#9be9a8"/><rect width="12" height="12" x="333" y="10" fill="#9be9a8"/><rect width="12" height="12" x="333" y="24" fill="#9be9a8"/><rect width="12" height="12" x="333" y="38" fill="#ebedf0"/><rect width="12" height="12" x="333" y="52" fill="#9be9a8"/><rect width="12" height="12" x="333" y="66" fill="#9be9a8"/><rect width="12" height="12" x="333" y="80" fill="#ebedf0"/><rect width="12" height="12" x="333" y="94" fill="#ebedf0"/><rect width="12" height="12" x="350" y="10" fill="#9be9a8"/><rect width="12" height="12" x="350" y="24" fill="#9be9a8"/><rect width="12" height="12" x="350" y="38" fill="#ebedf0"/><rect width="12" height="12" x="350" y="52" fill="#ebedf0"/><rect width="12" height="12" x="350" y="66" fill="#ebedf0"/><rect width="12" height="12" x="350" y="80" fill="#ebedf0"/><rect width="12" height="12" x="350" y="94" fill="#ebedf0"/><rect width="12" height="12" x="367" y="10" fill="#9be9a8"/><rect width="12" height="12" x="367" y="24" fill="#9be9a8"/><rect width="12" height="12" x="367" y="38" fill="#9be9a8"/><rect width="12" height="12" x="367" y="52" fill="#30a14e"/><rect width="12" height="12" x="367" y="66" fill="#9be9a8"/><rect width="12" height="12" x="367" y="80" fill="#ebedf0"/><rect width="12" height="12" x="367" y="94" fill="#ebedf0"/><rect width="12" height="12" x="384" y="10" fill="#ebedf0"/><rect width="12" height="12" x="384" y="24" fill="#216e39"/><rect width="12" height="12" x="384" y="38" fill="#40c463"/><rect width="12" height="12" x="384" y="52" fill="#216e39"/><rect width="12" height="12" x="384" y="66" fill="#30a14e"/><rect width="12" height="12" x="384" y="80" fill="#216e39"/><rect width="12" height="12" x="384" y="94" fill="#9be9a8"/><rect width="12" height="12" x="401" y="10" fill="#9be9a8"/><rect width="12" height="12" x="401" y="24" fill="#ebedf0"/><rect width="12" height="12" x="401" y="38" fill="#9be9a8"/><rect width="12" height="12" x="401" y="52" fill="#ebedf0"/><rect width="12" height="12" x="401" y="66" fill="#9be9a8"/><rect width="12" height="12" x="401" y="80" fill="#9be9a8"/><rect width="12" height="12" x="401" y="94" fill="#ebedf0"/><rect width="12" height="12" x="418" y="10" fill="#ebedf0"/><rect width="12" height="12" x="418" y="24" fill="#9be9a8"/><rect width="12" height="12" x="418" y="38" fill="#9be9a8"/><rect width="12" height="12" x="418" y="52" fill="#9be9a8"/><rect width="12" height="12" x="418" y="66" fill="#ebedf0"/><rect width="12" height="12" x="418" y="80" fill="#ebedf0"/><rect width="12" height="12" x="418" y="94" fill="#ebedf0"/><rect width="12" height="12" x="435" y="10" fill="#ebedf0"/><rect width="12" height="12" x="435" y="24" fill="#9be9a8"/><rect width="12" height="12" x="435" y="38" fill="#9be9a8"/><rect width="12" height="12" x="435" y="52" fill="#ebedf0"/><rect width="12" height="12" x="435" y="66" fill="#40c463"/><rect width="12" height="12" x="435" y="80" fill="#9be9a8"/><rect width="12" height="12" x="435" y="94" fill="#40c463"/><rect width="12" height="12" x="452" y="10" fill="#ebedf0"/><rect width="12" height="12" x="452" y="24" fill="#ebedf0"/><rect width="12" height="12" x="452" y="38" fill="#9be9a8"/><rect width="12" height="12" x="452" y="52" fill="#216e39"/><rect width="12" height="12" x="452" y="66" fill="#216e39"/><rect width="12" height="12" x="452" y="80" fill="#9be9a8"/><rect width="12" height="12" x="452" y="94" fill="#9be9a8"/><rect width="12" height="12" x="469" y="10" fill="#ebedf0"/><rect width="12" height="12" x="469" y="24" fill="#9be9a8"/><rect width="12" height="12" x="469" y="38" fill="#40c463"/><rect width="12" height="12" x="469" y="52" fill="#ebedf0"/><rect width="12" height="12" x="469" y="66" fill="#9be9a8"/><rect width="12" height="12" x="469" y="80" fill="#ebedf0"/><rect width="12" height="12" x="469" y="94" fill="#ebedf0"/><rect width="12" height="12" x="486" y="10" fill="#ebedf0"/><rect width="12" height="12" x="486" y="24" fill="#ebedf0"/><rect width="12" height="12" x="486" y="38" fill="#40c463"/><rect width="12" height="12" x="486" y="52" fill="#9be9a8"/><rect width="12" height="12" x="486" y="66" fill="#40c463"/><rect width="12" height="12" x="486" y="80" fill="#40c463"/><rect width="12" height="12" x="486" y="94" fill="#30a14e"/><rect width="12" height="12" x="503" y="10" fill="#ebedf0"/><rect width="12" height="12" x="503" y="24" fill="#ebedf0"/><rect width="12" height="12" x="503" y="38" fill="#ebedf0"/><rect width="12" height="12" x="503" y="52" fill="#ebedf0"/><rect width="12" height="12" x="503" y="66" fill="#9be9a8"/><rect width="12" height="12" x="503" y="80" fill="#9be9a8"/><rect width="12" height="12" x="503" y="94" fill="#9be9a8"/><rect width="12" height="12" x="520" y="10" fill="#ebedf0"/><rect width="12" height="12" x="520" y="24" fill="#ebedf0"/><rect width="12" height="12" x="520" y="38" fill="#9be9a8"/><rect width="12" height="12" x="520" y="52" fill="#ebedf0"/><rect width="12" height="12" x="520" y="66" fill="#ebedf0"/><rect width="12" height="12" x="520" y="80" fill="#ebedf0"/><rect width="12" height="12" x="520" y="94" fill="#ebedf0"/><rect width="12" height="12" x="537" y="10" fill="#ebedf0"/><rect width="12" height="12" x="537" y="24" fill="#ebedf0"/><rect width="12" height="12" x="537" y="38" fill="#9be9a8"/><rect width="12" height="12" x="537" y="52" fill="#9be9a8"/><rect width="12" height="12" x="537" y="66" fill="#ebedf0"/><rect width="12" height="12" x="537" y="80" fill="#30a14e"/><rect width="12" height="12" x="537" y="94" fill="#ebedf0"/><rect width="12" height="12" x="554" y="10" fill="#ebedf0"/><rect width="12" height="12" x="554" y="24" fill="#ebedf0"/><rect width="12" height="12" x="554" y="38" fill="#ebedf0"/><rect width="12" height="12" x="554" y="52" fill="#9be9a8"/><rect width="12" height="12" x="554" y="66" fill="#ebedf0"/><rect width="12" height="12" x="554" y="80" fill="#9be9a8"/><rect width="12" height="12" x="554" y="94" fill="#9be9a8"/><rect width="12" height="12" x="571" y="10" fill="#ebedf0"/><rect width="12" height="12" x="571" y="24" fill="#ebedf0"/><rect width="12" height="12" x="571" y="38" fill="#ebedf0"/><rect width="12" height="12" x="571" y="52" fill="#ebedf0"/><rect width="12" height="12" x="571" y="66" fill="#ebedf0"/><rect width="12" height="12" x="571" y="80" fill="#30a14e"/><rect width="12" height="12" x="571" y="94" fill="#40c463"/><rect width="12" height="12" x="588" y="10" fill="#ebedf0"/><rect width="12" height="12" x="588" y="24" fill="#ebedf0"/><rect width="12" height="12" x="588" y="38" fill="#ebedf0"/><rect width="12" height="12" x="588" y="52" fill="#ebedf0"/><rect width="12" height="12" x="588" y="66" fill="#ebedf0"/><rect width="12" height="12" x="588" y="80" fill="#9be9a8"/><rect width="12" height="12" x="588" y="94" fill="#ebedf0"/><rect width="12" height="12" x="605" y="10" fill="#ebedf0"/><rect width="12" height="12" x="605" y="24" fill="#ebedf0"/><rect width="12" height="12" x="605" y="38" fill="#ebedf0"/><rect width="12" height="12" x="605" y="52" fill="#ebedf0"/><rect width="12" height="12" x="605" y="66" fill="#9be9a8"/><rect width="12" height="12" x="605" y="80" fill="#ebedf0"/><rect width="12" height="12" x="605" y="94" fill="#9be9a8"/><rect width="12" height="12" x="622" y="10" fill="#ebedf0"/><rect width="12" height="12" x="622" y="24" fill="#ebedf0"/><rect width="12" height="12" x="622" y="38" fill="#ebedf0"/><rect width="12" height="12" x="622" y="52" fill="#ebedf0"/><rect width="12" height="12" x="622" y="66" fill="#ebedf0"/><rect width="12" height="12" x="622" y="80" fill="#9be9a8"/><rect width="12" height="12" x="622" y="94" fill="#ebedf0"/><rect width="12" height="12" x="639" y="10" fill="#ebedf0"/><rect width="12" height="12" x="639" y="24" fill="#9be9a8"/><rect width="12" height="12" x="639" y="38" fill="#9be9a8"/><rect width="12" height="12" x="639" y="52" fill="#ebedf0"/><rect width="12" height="12" x="639" y="66" fill="#ebedf0"/><rect width="12" height="12" x="639" y="80" fill="#ebedf0"/><rect width="12" height="12" x="639" y="94" fill="#30a14e"/><rect width="12" height="12" x="656" y="10" fill="#ebedf0"/><rect width="12" height="12" x="656" y="24" fill="#ebedf0"/><rect width="12" height="12" x="656" y="38" fill="#ebedf0"/><rect width="12" height="12" x="656" y="52" fill="#ebedf0"/><rect width="12" height="12" x="656" y="66" fill="#ebedf0"/><rect width="12" height="12" x="656" y="80" fill="#ebedf0"/><rect width="12" height="12" x="656" y="94" fill="#ebedf0"/><rect width="12" height="12" x="673" y="10" fill="#ebedf0"/><rect width="12" height="12" x="673" y="24" fill="#ebedf0"/><rect width="12" height="12" x="673" y="38" fill="#ebedf0"/><rect width="12" height="12" x="673" y="52" fill="#ebedf0"/><rect width="12" height="12" x="673" y="66" fill="#ebedf0"/><rect width="12" height="12" x="673" y="80" fill="#9be9a8"/><rect width="12" height="12" x="673" y="94" fill="#ebedf0"/><rect width="12" height="12" x="690" y="10" fill="#ebedf0"/><rect width="12" height="12" x="690" y="24" fill="#ebedf0"/><rect width="12" height="12" x="690" y="38" fill="#ebedf0"/><rect width="12" height="12" x="690" y="52" fill="#40c463"/><rect width="12" height="12" x="690" y="66" fill="#40c463"/><rect width="12" height="12" x="690" y="80" fill="#ebedf0"/><rect width="12" height="12" x="690" y="94" fill="#ebedf0"/><rect width="12" height="12" x="707" y="10" fill="#ebedf0"/><rect width="12" height="12" x="707" y="24" fill="#ebedf0"/><rect width="12" height="12" x="707" y="38" fill="#ebedf0"/><rect width="12" height="12" x="707" y="52" fill="#ebedf0"/><rect width="12" height="12" x="707" y="66" fill="#ebedf0"/><rect width="12" height="12" x="707" y="80" fill="#ebedf0"/><rect width="12" height="12" x="707" y="94" fill="#ebedf0"/><rect width="12" height="12" x="724" y="10" fill="#ebedf0"/><rect width="12" height="12" x="724" y="24" fill="#ebedf0"/><rect width="12" height="12" x="724" y="38" fill="#ebedf0"/><rect width="12" height="12" x="724" y="52" fill="#ebedf0"/><rect width="12" height="12" x="724" y="66" fill="#ebedf0"/><rect width="12" height="12" x="724" y="80" fill="#ebedf0"/><rect width="12" height="12" x="724" y="94" fill="#ebedf0"/><rect width="12" height="12" x="741" y="10" fill="#ebedf0"/><rect width="12" height="12" x="741" y="24" fill="#ebedf0"/><rect width="12" height="12" x="741" y="38" fill="#ebedf0"/><rect width="12" height="12" x="741" y="52" fill="#ebedf0"/><rect width="12" height="12" x="741" y="66" fill="#ebedf0"/><rect width="12" height="12" x="741" y="80" fill="#ebedf0"/><rect width="12" height="12" x="741" y="94" fill="#ebedf0"/><rect width="12" height="12" x="758" y="10" fill="#ebedf0"/><rect width="12" height="12" x="758" y="24" fill="#ebedf0"/><rect width="12" height="12" x="758" y="38" fill="#ebedf0"/><rect width="12" height="12" x="758" y="52" fill="#ebedf0"/><rect width="12" height="12" x="758" y="66" fill="#ebedf0"/><rect width="12" height="12" x="758" y="80" fill="#ebedf0"/><rect width="12" height="12" x="758" y="94" fill="#ebedf0"/><rect width="12" height="12" x="775" y="10" fill="#ebedf0"/><rect width="12" height="12" x="775" y="24" fill="#ebedf0"/><rect width="12" height="12" x="775" y="38" fill="#ebedf0"/><rect width="12" height="12" x="775" y="52" fill="#ebedf0"/><rect width="12" height="12" x="775" y="66" fill="#ebedf0"/><rect width="12" height="12" x="775" y="80" fill="#ebedf0"/><rect width="12" height="12" x="775" y="94" fill="#ebedf0"/><rect width="12" height="12" x="792" y="10" fill="#ebedf0"/><rect width="12" height="12" x="792" y="24" fill="#ebedf0"/><rect width="12" height="12" x="792" y="38" fill="#ebedf0"/><rect width="12" height="12" x="792" y="52" fill="#ebedf0"/><rect width="12" height="12" x="792" y="66" fill="#ebedf0"/><rect width="12" height="12" x="792" y="80" fill="#ebedf0"/><rect width="12" height="12" x="792" y="94" fill="#ebedf0"/><rect width="12" height="12" x="809" y="10" fill="#ebedf0"/><rect width="12" height="12" x="809" y="24" fill="#ebedf0"/><rect width="12" height="12" x="809" y="38" fill="#ebedf0"/><rect width="12" height="12" x="809" y="52" fill="#ebedf0"/><rect width="12" height="12" x="809" y="66" fill="#ebedf0"/><rect width="12" height="12" x="809" y="80" fill="#ebedf0"/><rect width="12" height="12" x="809" y="94" fill="#ebedf0"/><rect width="12" height="12" x="826" y="10" fill="#ebedf0"/><rect width="12" height="12" x="826" y="24" fill="#ebedf0"/><rect width="12" height="12" x="826" y="38" fill="#ebedf0"/><rect width="12" height="12" x="826" y="52" fill="#ebedf0"/><rect width="12" height="12" x="826" y="66" fill="#ebedf0"/><rect width="12" height="12" x="826" y="80" fill="#ebedf0"/><rect width="12" height="12" x="826" y="94" fill="#ebedf0"/><rect width="12" height="12" x="843" y="10" fill="#ebedf0"/><rect width="12" height="12" x="843" y="24" fill="#ebedf0"/><rect width="12" height="12" x="843" y="38" fill="#ebedf0"/><rect width="12" height="12" x="843" y="52" fill="#ebedf0"/><rect width="12" height="12" x="843" y="66" fill="#ebedf0"/><rect width="12" height="12" x="843" y="80" fill="#ebedf0"/><rect width="12" height="12" x="843" y="94" fill="#ebedf0"/><rect width="12" height="12" x="860" y="10" fill="#ebedf0"/><rect width="12" height="12" x="860" y="24" fill="#ebedf0"/><rect width="12" height="12" x="860" y="38" fill="#ebedf0"/><rect width="12" height="12" x="860" y="52" fill="#ebedf0"/><rect width="12" height="12" x="860" y="66" fill="#ebedf0"/><rect width="12" height="12" x="860" y="80" fill="#ebedf0"/><rect width="12" height="12" x="860" y="94" fill="#ebedf0"/><rect width="12" height="12" x="877" y="10" fill="#ebedf0"/><rect width="12" height="12" x="877" y="24" fill="#ebedf0"/><rect width="12" height="12" x="877" y="38" fill="#ebedf0"/><rect width="12" height="12" x="877" y="52" fill="#ebedf0"/><rect width="12" height="12" x="877" y="66" fill="#ebedf0"/><rect width="12" height="12" x="877" y="80" fill="#ebedf0"/><rect width="12" height="12" x="877" y="94" fill="#ebedf0"/><rect width="12" height="12" x="894" y="10" fill="#ebedf0"/><rect width="12" height="12" x="894" y="24" fill="#ebedf0"/></svg>