<svg xmlns="http://www.w3.org/2000/svg" xmlns:svgjs="http://svgjs.dev/svgjs" xmlns:xlink="http://www.w3.org/1999/xlink" version="1.1" viewBox="0 0 800 800"><defs><linearGradient id="oooscillate-grad" x1="50%" x2="50%" y1="0%" y2="100%"><stop offset="0%" stop-color="hsl(105, 69%, 40%)" stop-opacity="1"/><stop offset="100%" stop-color="hsl(105, 69%, 60%)" stop-opacity="1"/></linearGradient></defs><g fill="none" stroke="url(#oooscillate-grad)" strokeLinecap="round" strokeWidth="2"><path d="M 0 500 Q 200 35 400 400 Q 600 765 800 500" opacity="1"/><path d="M 0 475 Q 200 35 400 400 Q 600 765 800 475" opacity=".95"/><path d="M 0 450 Q 200 35 400 400 Q 600 765 800 450" opacity=".9"/><path d="M 0 425 Q 200 35 400 400 Q 600 765 800 425" opacity=".85"/><path d="M 0 400 Q 200 35 400 400 Q 600 765 800 400" opacity=".8"/><path d="M 0 375 Q 200 35 400 400 Q 600 765 800 375" opacity=".75"/><path d="M 0 350 Q 200 35 400 400 Q 600 765 800 350" opacity=".7"/><path d="M 0 325 Q 200 35 400 400 Q 600 765 800 325" opacity=".65"/><path d="M 0 300 Q 200 35 400 400 Q 600 765 800 300" opacity=".6"/><path d="M 0 275 Q 200 35 400 400 Q 600 765 800 275" opacity=".55"/><path d="M 0 250 Q 200 35 400 400 Q 600 765 800 250" opacity=".5"/><path d="M 0 225 Q 200 35 400 400 Q 600 765 800 225" opacity=".45"/><path d="M 0 200 Q 200 35 400 400 Q 600 765 800 200" opacity=".4"/><path d="M 0 175 Q 200 35 400 400 Q 600 765 800 175" opacity=".35"/><path d="M 0 150 Q 200 35 400 400 Q 600 765 800 150" opacity=".3"/><path d="M 0 125 Q 200 35 400 400 Q 600 765 800 125" opacity=".25"/><path d="M 0 100 Q 200 35 400 400 Q 600 765 800 100" opacity=".2"/><path d="M 0 75 Q 200 35 400 400 Q 600 765 800 75" opacity=".15"/><path d="M 0 50 Q 200 35 400 400 Q 600 765 800 50" opacity=".1"/></g></svg>